<?xml version="1.0" encoding="UTF-8" standalone="no"?>
<!DOCTYPE svg PUBLIC "-//W3C//DTD SVG 1.1//EN"
"http://www.w3.org/Graphics/SVG/1.1/DTD/svg11.dtd">
<svg viewBox="0 0 909 1286" version="1.1" xmlns="http://www.w3.org/2000/svg" xmlns:xlink="http://www.w3.org/1999/xlink">
<defs>
<clipPath id="c0_1"><path d="M110,233.1V110H221V233.1Z"/></clipPath>
<clipPath id="c1_1"><path d="M638.9,233.8V116.9H760.1V233.8Z"/></clipPath>
<clipPath id="c2_1"><path d="M116.2,365.9V274.7H217.4v91.2Z"/></clipPath>
<style type="text/css"><![CDATA[
.g0_1{
}
.g1_1{
fill: #FFFFFF;
}
]]></style>
</defs>
<path fill-rule="evenodd" d="M109.5,596.5h.6v-.6h-.6v.6Z" class="g0_1"/>
<path fill-rule="evenodd" d="M109.5,596.5h.6v-.6h-.6v.6Z" class="g0_1"/>
<path fill-rule="evenodd" d="M110.1,596.5H454v-.6H110.1v.6Z" class="g0_1"/>
<path fill-rule="evenodd" d="M454,596.5h.6v-.6H454v.6Z" class="g0_1"/>
<path fill-rule="evenodd" d="M454.6,596.5H798.5v-.6H454.6v.6Z" class="g0_1"/>
<path fill-rule="evenodd" d="M798.5,596.5h.6v-.6h-.6v.6Z" class="g0_1"/>
<path fill-rule="evenodd" d="M798.5,596.5h.6v-.6h-.6v.6Z" class="g0_1"/>
<path fill-rule="evenodd" d="M109.5,615.2h.6V596.5h-.6v18.7Z" class="g0_1"/>
<path fill-rule="evenodd" d="M454,615.2h.6V596.5H454v18.7Z" class="g0_1"/>
<path fill-rule="evenodd" d="M798.5,615.2h.6V596.5h-.6v18.7Z" class="g0_1"/>
<path fill-rule="evenodd" d="M109.5,615.7h.6v-.5h-.6v.5Z" class="g0_1"/>
<path fill-rule="evenodd" d="M110.1,615.7H454v-.5H110.1v.5Z" class="g0_1"/>
<path fill-rule="evenodd" d="M454,615.7h.6v-.5H454v.5Z" class="g0_1"/>
<path fill-rule="evenodd" d="M454.6,615.7H798.5v-.5H454.6v.5Z" class="g0_1"/>
<path fill-rule="evenodd" d="M798.5,615.7h.6v-.5h-.6v.5Z" class="g0_1"/>
<path fill-rule="evenodd" d="M109.5,634.4h.6V615.7h-.6v18.7Z" class="g0_1"/>
<path fill-rule="evenodd" d="M454,634.4h.6V615.7H454v18.7Z" class="g0_1"/>
<path fill-rule="evenodd" d="M798.5,634.4h.6V615.7h-.6v18.7Z" class="g0_1"/>
<path fill-rule="evenodd" d="M109.5,635h.6v-.6h-.6v.6Z" class="g0_1"/>
<path fill-rule="evenodd" d="M110.1,635H454v-.6H110.1v.6Z" class="g0_1"/>
<path fill-rule="evenodd" d="M454,635h.6v-.6H454v.6Z" class="g0_1"/>
<path fill-rule="evenodd" d="M454.6,635H798.5v-.6H454.6v.6Z" class="g0_1"/>
<path fill-rule="evenodd" d="M798.5,635h.6v-.6h-.6v.6Z" class="g0_1"/>
<path fill-rule="evenodd" d="M109.5,653.1h.6V635h-.6v18.1Z" class="g0_1"/>
<path fill-rule="evenodd" d="M454,653.1h.6V635H454v18.1Z" class="g0_1"/>
<path fill-rule="evenodd" d="M798.5,653.1h.6V635h-.6v18.1Z" class="g0_1"/>
<path fill-rule="evenodd" d="M109.5,653.7h.6v-.6h-.6v.6Z" class="g0_1"/>
<path fill-rule="evenodd" d="M110.1,653.7H454v-.6H110.1v.6Z" class="g0_1"/>
<path fill-rule="evenodd" d="M454,653.7h.6v-.6H454v.6Z" class="g0_1"/>
<path fill-rule="evenodd" d="M454.6,653.7H798.5v-.6H454.6v.6Z" class="g0_1"/>
<path fill-rule="evenodd" d="M798.5,653.7h.6v-.6h-.6v.6Z" class="g0_1"/>
<path fill-rule="evenodd" d="M109.5,672.4h.6V653.7h-.6v18.7Z" class="g0_1"/>
<path fill-rule="evenodd" d="M454,672.4h.6V653.7H454v18.7Z" class="g0_1"/>
<path fill-rule="evenodd" d="M798.5,672.4h.6V653.7h-.6v18.7Z" class="g0_1"/>
<path fill-rule="evenodd" d="M109.5,672.9h.6v-.5h-.6v.5Z" class="g0_1"/>
<path fill-rule="evenodd" d="M110.1,672.9H454v-.5H110.1v.5Z" class="g0_1"/>
<path fill-rule="evenodd" d="M454,672.9h.6v-.5H454v.5Z" class="g0_1"/>
<path fill-rule="evenodd" d="M454.6,672.9H798.5v-.5H454.6v.5Z" class="g0_1"/>
<path fill-rule="evenodd" d="M798.5,672.9h.6v-.5h-.6v.5Z" class="g0_1"/>
<path fill-rule="evenodd" d="M109.5,691.6h.6V672.9h-.6v18.7Z" class="g0_1"/>
<path fill-rule="evenodd" d="M454,691.6h.6V672.9H454v18.7Z" class="g0_1"/>
<path fill-rule="evenodd" d="M798.5,691.6h.6V672.9h-.6v18.7Z" class="g0_1"/>
<path fill-rule="evenodd" d="M109.5,692.2h.6v-.6h-.6v.6Z" class="g0_1"/>
<path fill-rule="evenodd" d="M110.1,692.2H454v-.6H110.1v.6Z" class="g0_1"/>
<path fill-rule="evenodd" d="M454,692.2h.6v-.6H454v.6Z" class="g0_1"/>
<path fill-rule="evenodd" d="M454.6,692.2H798.5v-.6H454.6v.6Z" class="g0_1"/>
<path fill-rule="evenodd" d="M798.5,692.2h.6v-.6h-.6v.6Z" class="g0_1"/>
<path fill-rule="evenodd" d="M109.5,710.9h.6V692.2h-.6v18.7Z" class="g0_1"/>
<path fill-rule="evenodd" d="M454,710.9h.6V692.2H454v18.7Z" class="g0_1"/>
<path fill-rule="evenodd" d="M798.5,710.9h.6V692.2h-.6v18.7Z" class="g0_1"/>
<path fill-rule="evenodd" d="M109.5,711.4h.6v-.5h-.6v.5Z" class="g0_1"/>
<path fill-rule="evenodd" d="M110.1,711.4H454v-.5H110.1v.5Z" class="g0_1"/>
<path fill-rule="evenodd" d="M454,711.4h.6v-.5H454v.5Z" class="g0_1"/>
<path fill-rule="evenodd" d="M454.6,711.4H798.5v-.5H454.6v.5Z" class="g0_1"/>
<path fill-rule="evenodd" d="M798.5,711.4h.6v-.5h-.6v.5Z" class="g0_1"/>
<path fill-rule="evenodd" d="M109.5,729.6h.6V711.4h-.6v18.2Z" class="g0_1"/>
<path fill-rule="evenodd" d="M454,729.6h.6V711.4H454v18.2Z" class="g0_1"/>
<path fill-rule="evenodd" d="M798.5,729.6h.6V711.4h-.6v18.2Z" class="g0_1"/>
<path fill-rule="evenodd" d="M109.5,730.1h.6v-.5h-.6v.5Z" class="g0_1"/>
<path fill-rule="evenodd" d="M110.1,730.1H454v-.5H110.1v.5Z" class="g0_1"/>
<path fill-rule="evenodd" d="M454,730.1h.6v-.5H454v.5Z" class="g0_1"/>
<path fill-rule="evenodd" d="M454.6,730.1H798.5v-.5H454.6v.5Z" class="g0_1"/>
<path fill-rule="evenodd" d="M798.5,730.1h.6v-.5h-.6v.5Z" class="g0_1"/>
<path fill-rule="evenodd" d="M109.5,748.9h.6V730.1h-.6v18.8Z" class="g0_1"/>
<path fill-rule="evenodd" d="M454,748.9h.6V730.1H454v18.8Z" class="g0_1"/>
<path fill-rule="evenodd" d="M798.5,748.9h.6V730.1h-.6v18.8Z" class="g0_1"/>
<path fill-rule="evenodd" d="M109.5,749.4h.6v-.5h-.6v.5Z" class="g0_1"/>
<path fill-rule="evenodd" d="M110.1,749.4H454v-.5H110.1v.5Z" class="g0_1"/>
<path fill-rule="evenodd" d="M454,749.4h.6v-.5H454v.5Z" class="g0_1"/>
<path fill-rule="evenodd" d="M454.6,749.4H798.5v-.5H454.6v.5Z" class="g0_1"/>
<path fill-rule="evenodd" d="M798.5,749.4h.6v-.5h-.6v.5Z" class="g0_1"/>
<path fill-rule="evenodd" d="M109.5,768.1h.6V749.4h-.6v18.7Z" class="g0_1"/>
<path fill-rule="evenodd" d="M454,768.1h.6V749.4H454v18.7Z" class="g0_1"/>
<path fill-rule="evenodd" d="M798.5,768.1h.6V749.4h-.6v18.7Z" class="g0_1"/>
<path fill-rule="evenodd" d="M109.5,768.7h.6v-.6h-.6v.6Z" class="g0_1"/>
<path fill-rule="evenodd" d="M110.1,768.7H454v-.6H110.1v.6Z" class="g0_1"/>
<path fill-rule="evenodd" d="M454,768.7h.6v-.6H454v.6Z" class="g0_1"/>
<path fill-rule="evenodd" d="M454.6,768.7H798.5v-.6H454.6v.6Z" class="g0_1"/>
<path fill-rule="evenodd" d="M798.5,768.7h.6v-.6h-.6v.6Z" class="g0_1"/>
<path fill-rule="evenodd" d="M109.5,786.8h.6V768.7h-.6v18.1Z" class="g0_1"/>
<path fill-rule="evenodd" d="M454,786.8h.6V768.7H454v18.1Z" class="g0_1"/>
<path fill-rule="evenodd" d="M798.5,786.8h.6V768.7h-.6v18.1Z" class="g0_1"/>
<path fill-rule="evenodd" d="M109.5,787.4h.6v-.6h-.6v.6Z" class="g0_1"/>
<path fill-rule="evenodd" d="M110.1,787.4H454v-.6H110.1v.6Z" class="g0_1"/>
<path fill-rule="evenodd" d="M454,787.4h.6v-.6H454v.6Z" class="g0_1"/>
<path fill-rule="evenodd" d="M454.6,787.4H798.5v-.6H454.6v.6Z" class="g0_1"/>
<path fill-rule="evenodd" d="M798.5,787.4h.6v-.6h-.6v.6Z" class="g0_1"/>
<path fill-rule="evenodd" d="M109.5,855.6h.6V787.4h-.6v68.2Z" class="g0_1"/>
<path fill-rule="evenodd" d="M454,855.6h.6V787.4H454v68.2Z" class="g0_1"/>
<path fill-rule="evenodd" d="M798.5,855.6h.6V787.4h-.6v68.2Z" class="g0_1"/>
<path fill-rule="evenodd" d="M109.5,856.2h.6v-.6h-.6v.6Z" class="g0_1"/>
<path fill-rule="evenodd" d="M110.1,856.2H454v-.6H110.1v.6Z" class="g0_1"/>
<path fill-rule="evenodd" d="M454,856.2h.6v-.6H454v.6Z" class="g0_1"/>
<path fill-rule="evenodd" d="M454.6,856.2H798.5v-.6H454.6v.6Z" class="g0_1"/>
<path fill-rule="evenodd" d="M798.5,856.2h.6v-.6h-.6v.6Z" class="g0_1"/>
<path fill-rule="evenodd" d="M109.5,874.9h.6V856.2h-.6v18.7Z" class="g0_1"/>
<path fill-rule="evenodd" d="M454,874.9h.6V856.2H454v18.7Z" class="g0_1"/>
<path fill-rule="evenodd" d="M798.5,874.9h.6V856.2h-.6v18.7Z" class="g0_1"/>
<path fill-rule="evenodd" d="M109.5,875.4h.6v-.5h-.6v.5Z" class="g0_1"/>
<path fill-rule="evenodd" d="M110.1,875.4H454v-.5H110.1v.5Z" class="g0_1"/>
<path fill-rule="evenodd" d="M454,875.4h.6v-.5H454v.5Z" class="g0_1"/>
<path fill-rule="evenodd" d="M454.6,875.4H798.5v-.5H454.6v.5Z" class="g0_1"/>
<path fill-rule="evenodd" d="M798.5,875.4h.6v-.5h-.6v.5Z" class="g0_1"/>
<path fill-rule="evenodd" d="M109.5,894.1h.6V875.4h-.6v18.7Z" class="g0_1"/>
<path fill-rule="evenodd" d="M454,894.1h.6V875.4H454v18.7Z" class="g0_1"/>
<path fill-rule="evenodd" d="M798.5,894.1h.6V875.4h-.6v18.7Z" class="g0_1"/>
<path fill-rule="evenodd" d="M109.5,894.7h.6v-.6h-.6v.6Z" class="g0_1"/>
<path fill-rule="evenodd" d="M110.1,894.7H454v-.6H110.1v.6Z" class="g0_1"/>
<path fill-rule="evenodd" d="M454,894.7h.6v-.6H454v.6Z" class="g0_1"/>
<path fill-rule="evenodd" d="M454.6,894.7H798.5v-.6H454.6v.6Z" class="g0_1"/>
<path fill-rule="evenodd" d="M798.5,894.7h.6v-.6h-.6v.6Z" class="g0_1"/>
<path fill-rule="evenodd" d="M109.5,913.4h.6V894.7h-.6v18.7Z" class="g0_1"/>
<path fill-rule="evenodd" d="M454,913.4h.6V894.7H454v18.7Z" class="g0_1"/>
<path fill-rule="evenodd" d="M798.5,913.4h.6V894.7h-.6v18.7Z" class="g0_1"/>
<path fill-rule="evenodd" d="M109.5,913.9h.6v-.5h-.6v.5Z" class="g0_1"/>
<path fill-rule="evenodd" d="M110.1,913.9H454v-.5H110.1v.5Z" class="g0_1"/>
<path fill-rule="evenodd" d="M454,913.9h.6v-.5H454v.5Z" class="g0_1"/>
<path fill-rule="evenodd" d="M454.6,913.9H798.5v-.5H454.6v.5Z" class="g0_1"/>
<path fill-rule="evenodd" d="M798.5,913.9h.6v-.5h-.6v.5Z" class="g0_1"/>
<path fill-rule="evenodd" d="M109.5,932.1h.6V913.9h-.6v18.2Z" class="g0_1"/>
<path fill-rule="evenodd" d="M454,932.1h.6V913.9H454v18.2Z" class="g0_1"/>
<path fill-rule="evenodd" d="M798.5,932.1h.6V913.9h-.6v18.2Z" class="g0_1"/>
<path fill-rule="evenodd" d="M109.5,932.6h.6v-.5h-.6v.5Z" class="g0_1"/>
<path fill-rule="evenodd" d="M110.1,932.6H454v-.5H110.1v.5Z" class="g0_1"/>
<path fill-rule="evenodd" d="M454,932.6h.6v-.5H454v.5Z" class="g0_1"/>
<path fill-rule="evenodd" d="M454.6,932.6H798.5v-.5H454.6v.5Z" class="g0_1"/>
<path fill-rule="evenodd" d="M798.5,932.6h.6v-.5h-.6v.5Z" class="g0_1"/>
<path fill-rule="evenodd" d="M109.5,988.2h.6V932.6h-.6v55.6Z" class="g0_1"/>
<path fill-rule="evenodd" d="M454,988.2h.6V932.6H454v55.6Z" class="g0_1"/>
<path fill-rule="evenodd" d="M798.5,988.2h.6V932.6h-.6v55.6Z" class="g0_1"/>
<path fill-rule="evenodd" d="M109.5,988.7h.6v-.5h-.6v.5Z" class="g0_1"/>
<path fill-rule="evenodd" d="M110.1,988.7H454v-.5H110.1v.5Z" class="g0_1"/>
<path fill-rule="evenodd" d="M454,988.7h.6v-.5H454v.5Z" class="g0_1"/>
<path fill-rule="evenodd" d="M454.6,988.7H798.5v-.5H454.6v.5Z" class="g0_1"/>
<path fill-rule="evenodd" d="M798.5,988.7h.6v-.5h-.6v.5Z" class="g0_1"/>
<path fill-rule="evenodd" d="M109.5,1006.9h.6V988.8h-.6v18.1Z" class="g0_1"/>
<path fill-rule="evenodd" d="M454,1006.9h.6V988.8H454v18.1Z" class="g0_1"/>
<path fill-rule="evenodd" d="M798.5,1006.9h.6V988.8h-.6v18.1Z" class="g0_1"/>
<path fill-rule="evenodd" d="M109.5,1007.5h.6v-.6h-.6v.6Z" class="g0_1"/>
<path fill-rule="evenodd" d="M110.1,1007.5H454v-.6H110.1v.6Z" class="g0_1"/>
<path fill-rule="evenodd" d="M454,1007.5h.6v-.6H454v.6Z" class="g0_1"/>
<path fill-rule="evenodd" d="M454.6,1007.5H798.5v-.6H454.6v.6Z" class="g0_1"/>
<path fill-rule="evenodd" d="M798.5,1007.5h.6v-.6h-.6v.6Z" class="g0_1"/>
<path fill-rule="evenodd" d="M109.5,1026.2h.6v-18.7h-.6v18.7Z" class="g0_1"/>
<path fill-rule="evenodd" d="M454,1026.2h.6v-18.7H454v18.7Z" class="g0_1"/>
<path fill-rule="evenodd" d="M798.5,1026.2h.6v-18.7h-.6v18.7Z" class="g0_1"/>
<path fill-rule="evenodd" d="M109.5,1026.7h.6v-.5h-.6v.5Z" class="g0_1"/>
<path fill-rule="evenodd" d="M110.1,1026.7H454v-.5H110.1v.5Z" class="g0_1"/>
<path fill-rule="evenodd" d="M454,1026.7h.6v-.5H454v.5Z" class="g0_1"/>
<path fill-rule="evenodd" d="M454.6,1026.7H798.5v-.5H454.6v.5Z" class="g0_1"/>
<path fill-rule="evenodd" d="M798.5,1026.7h.6v-.5h-.6v.5Z" class="g0_1"/>
<path fill-rule="evenodd" d="M109.5,1063.6h.6v-36.9h-.6v36.9Z" class="g0_1"/>
<path fill-rule="evenodd" d="M454,1063.6h.6v-36.9H454v36.9Z" class="g0_1"/>
<path fill-rule="evenodd" d="M798.5,1063.6h.6v-36.9h-.6v36.9Z" class="g0_1"/>
<path fill-rule="evenodd" d="M109.5,1064.1h.6v-.5h-.6v.5Z" class="g0_1"/>
<path fill-rule="evenodd" d="M110.1,1064.1H454v-.5H110.1v.5Z" class="g0_1"/>
<path fill-rule="evenodd" d="M454,1064.1h.6v-.5H454v.5Z" class="g0_1"/>
<path fill-rule="evenodd" d="M454.6,1064.1H798.5v-.5H454.6v.5Z" class="g0_1"/>
<path fill-rule="evenodd" d="M798.5,1064.1h.6v-.5h-.6v.5Z" class="g0_1"/>
<path fill-rule="evenodd" d="M109.5,1082.8h.6v-18.7h-.6v18.7Z" class="g0_1"/>
<path fill-rule="evenodd" d="M454,1082.8h.6v-18.7H454v18.7Z" class="g0_1"/>
<path fill-rule="evenodd" d="M798.5,1082.8h.6v-18.7h-.6v18.7Z" class="g0_1"/>
<path fill-rule="evenodd" d="M109.5,1083.4h.6v-.6h-.6v.6Z" class="g0_1"/>
<path fill-rule="evenodd" d="M110.1,1083.4H454v-.6H110.1v.6Z" class="g0_1"/>
<path fill-rule="evenodd" d="M454,1083.4h.6v-.6H454v.6Z" class="g0_1"/>
<path fill-rule="evenodd" d="M454.6,1083.4H798.5v-.6H454.6v.6Z" class="g0_1"/>
<path fill-rule="evenodd" d="M798.5,1083.4h.6v-.6h-.6v.6Z" class="g0_1"/>
<path fill-rule="evenodd" d="M109.5,1102.1h.6v-18.7h-.6v18.7Z" class="g0_1"/>
<path fill-rule="evenodd" d="M454,1102.1h.6v-18.7H454v18.7Z" class="g0_1"/>
<path fill-rule="evenodd" d="M798.5,1102.1h.6v-18.7h-.6v18.7Z" class="g0_1"/>
<path fill-rule="evenodd" d="M109.5,1102.7h.6v-.6h-.6v.6Z" class="g0_1"/>
<path fill-rule="evenodd" d="M110.1,1102.7H454v-.6H110.1v.6Z" class="g0_1"/>
<path fill-rule="evenodd" d="M454,1102.7h.6v-.6H454v.6Z" class="g0_1"/>
<path fill-rule="evenodd" d="M454.6,1102.7H798.5v-.6H454.6v.6Z" class="g0_1"/>
<path fill-rule="evenodd" d="M798.5,1102.7h.6v-.6h-.6v.6Z" class="g0_1"/>
<path fill-rule="evenodd" d="M109.5,1120.8h.6v-18.1h-.6v18.1Z" class="g0_1"/>
<path fill-rule="evenodd" d="M454,1120.8h.6v-18.1H454v18.1Z" class="g0_1"/>
<path fill-rule="evenodd" d="M798.5,1120.8h.6v-18.1h-.6v18.1Z" class="g0_1"/>
<path fill-rule="evenodd" d="M109.5,1121.4h.6v-.6h-.6v.6Z" class="g0_1"/>
<path fill-rule="evenodd" d="M110.1,1121.4H454v-.6H110.1v.6Z" class="g0_1"/>
<path fill-rule="evenodd" d="M454,1121.4h.6v-.6H454v.6Z" class="g0_1"/>
<path fill-rule="evenodd" d="M454.6,1121.4H798.5v-.6H454.6v.6Z" class="g0_1"/>
<path fill-rule="evenodd" d="M798.5,1121.4h.6v-.6h-.6v.6Z" class="g0_1"/>
<path fill-rule="evenodd" d="M109.5,1140.1h.6v-18.7h-.6v18.7Z" class="g0_1"/>
<path fill-rule="evenodd" d="M454,1140.1h.6v-18.7H454v18.7Z" class="g0_1"/>
<path fill-rule="evenodd" d="M798.5,1140.1h.6v-18.7h-.6v18.7Z" class="g0_1"/>
<path fill-rule="evenodd" d="M109.5,1140.6h.6v-.5h-.6v.5Z" class="g0_1"/>
<path fill-rule="evenodd" d="M110.1,1140.6H454v-.5H110.1v.5Z" class="g0_1"/>
<path fill-rule="evenodd" d="M454,1140.6h.6v-.5H454v.5Z" class="g0_1"/>
<path fill-rule="evenodd" d="M454.6,1140.6H798.5v-.5H454.6v.5Z" class="g0_1"/>
<path fill-rule="evenodd" d="M798.5,1140.6h.6v-.5h-.6v.5Z" class="g0_1"/>
<path fill-rule="evenodd" d="M109.5,1159.3h.6v-18.7h-.6v18.7Z" class="g0_1"/>
<path fill-rule="evenodd" d="M109.5,1159.9h.6v-.6h-.6v.6Z" class="g0_1"/>
<path fill-rule="evenodd" d="M109.5,1159.9h.6v-.6h-.6v.6Z" class="g0_1"/>
<path fill-rule="evenodd" d="M110.1,1159.9H454v-.6H110.1v.6Z" class="g0_1"/>
<path fill-rule="evenodd" d="M454,1159.3h.6v-18.7H454v18.7Z" class="g0_1"/>
<path fill-rule="evenodd" d="M454,1159.9h.6v-.6H454v.6Z" class="g0_1"/>
<path fill-rule="evenodd" d="M454.6,1159.9H798.5v-.6H454.6v.6Z" class="g0_1"/>
<path fill-rule="evenodd" d="M798.5,1159.3h.6v-18.7h-.6v18.7Z" class="g0_1"/>
<path fill-rule="evenodd" d="M798.5,1159.9h.6v-.6h-.6v.6Z" class="g0_1"/>
<path fill-rule="evenodd" d="M798.5,1159.9h.6v-.6h-.6v.6Z" class="g0_1"/>
<image clip-path="url(#c0_1)" preserveAspectRatio="none" x="110" y="110" width="111" height="123" xlink:href="img/1.jpg"/>
<image clip-path="url(#c1_1)" preserveAspectRatio="none" x="639" y="117" width="121" height="117" xlink:href="img/2.jpg"/>
<image clip-path="url(#c2_1)" preserveAspectRatio="none" x="116" y="275" width="101" height="91" xlink:href="img/3.jpg"/>
<path fill-rule="evenodd" d="M38,39.6h.5V37.9H38v1.7Z" class="g0_1"/>
<path fill-rule="evenodd" d="M38,38.5h1.6v-.6H38v.6Z" class="g0_1"/>
<path fill-rule="evenodd" d="M38.5,39.6h.6V38.5h-.6v1.1Z" class="g1_1"/>
<path fill-rule="evenodd" d="M38.5,39h1.1v-.5H38.5V39Z" class="g1_1"/>
<path fill-rule="evenodd" d="M39.1,39.6h.5V39h-.5v.6Z" class="g0_1"/>
<path fill-rule="evenodd" d="M39.1,39.6h.5V39h-.5v.6Z" class="g0_1"/>
<path fill-rule="evenodd" d="M39.6,38.5h831v-.6H39.6v.6Z" class="g0_1"/>
<path fill-rule="evenodd" d="M39.6,39h831v-.5H39.6V39Z" class="g1_1"/>
<path fill-rule="evenodd" d="M39.6,39.6h831V39H39.6v.6Z" class="g0_1"/>
<path fill-rule="evenodd" d="M871.7,39.6h.6V37.9h-.6v1.7Z" class="g0_1"/>
<path fill-rule="evenodd" d="M870.6,38.5h1.7v-.6h-1.7v.6Z" class="g0_1"/>
<path fill-rule="evenodd" d="M871.2,39.6h.5V38.5h-.5v1.1Z" class="g1_1"/>
<path fill-rule="evenodd" d="M870.6,39h1.1v-.5h-1.1V39Z" class="g1_1"/>
<path fill-rule="evenodd" d="M870.6,39.6h.6V39h-.6v.6Z" class="g0_1"/>
<path fill-rule="evenodd" d="M870.6,39.6h.6V39h-.6v.6Z" class="g0_1"/>
<path fill-rule="evenodd" d="M38,1247.4h.5V39.6H38V1247.4Z" class="g0_1"/>
<path fill-rule="evenodd" d="M38.5,1247.4h.6V39.6h-.6V1247.4Z" class="g1_1"/>
<path fill-rule="evenodd" d="M39.1,1247.4h.5V39.6h-.5V1247.4Z" class="g0_1"/>
<path fill-rule="evenodd" d="M872.3,1247.4h1.6V39.6h-1.6V1247.4Z" class="g0_1"/>
<path fill-rule="evenodd" d="M871.7,1247.4h.6V39.6h-.6V1247.4Z" class="g0_1"/>
<path fill-rule="evenodd" d="M871.2,1247.4h.5V39.6h-.5V1247.4Z" class="g1_1"/>
<path fill-rule="evenodd" d="M870.6,1247.4h.6V39.6h-.6V1247.4Z" class="g0_1"/>
<path fill-rule="evenodd" d="M38,1249h.5v-1.6H38v1.6Z" class="g0_1"/>
<path fill-rule="evenodd" d="M38,1249h1.6v-.5H38v.5Z" class="g0_1"/>
<path fill-rule="evenodd" d="M38.5,1248.5h.6v-1.1h-.6v1.1Z" class="g1_1"/>
<path fill-rule="evenodd" d="M38.5,1248.5h1.1v-.6H38.5v.6Z" class="g1_1"/>
<path fill-rule="evenodd" d="M39.1,1247.9h.5v-.5h-.5v.5Z" class="g0_1"/>
<path fill-rule="evenodd" d="M39.1,1247.9h.5v-.5h-.5v.5Z" class="g0_1"/>
<path fill-rule="evenodd" d="M39.6,1250.7h831V1249H39.6v1.7Z" class="g0_1"/>
<path fill-rule="evenodd" d="M39.6,1249h831v-.5H39.6v.5Z" class="g0_1"/>
<path fill-rule="evenodd" d="M39.6,1248.5h831v-.6H39.6v.6Z" class="g1_1"/>
<path fill-rule="evenodd" d="M39.6,1247.9h831v-.5H39.6v.5Z" class="g0_1"/>
<path fill-rule="evenodd" d="M872.3,1250.7h1.6v-3.3h-1.6v3.3Z" class="g0_1"/>
<path fill-rule="evenodd" d="M870.6,1250.7h3.3V1249h-3.3v1.7Z" class="g0_1"/>
<path fill-rule="evenodd" d="M871.7,1249h.6v-1.6h-.6v1.6Z" class="g0_1"/>
<path fill-rule="evenodd" d="M870.6,1249h1.7v-.5h-1.7v.5Z" class="g0_1"/>
<path fill-rule="evenodd" d="M871.2,1248.5h.5v-1.1h-.5v1.1Z" class="g1_1"/>
<path fill-rule="evenodd" d="M870.6,1248.5h1.1v-.6h-1.1v.6Z" class="g1_1"/>
<path fill-rule="evenodd" d="M870.6,1247.9h.6v-.5h-.6v.5Z" class="g0_1"/>
<path fill-rule="evenodd" d="M870.6,1247.9h.6v-.5h-.6v.5Z" class="g0_1"/>
</svg>