<?xml version="1.0" encoding="UTF-8" standalone="no"?>
<!DOCTYPE svg PUBLIC "-//W3C//DTD SVG 1.1//EN"
"http://www.w3.org/Graphics/SVG/1.1/DTD/svg11.dtd">
<svg viewBox="0 0 909 1286" version="1.1" xmlns="http://www.w3.org/2000/svg" xmlns:xlink="http://www.w3.org/1999/xlink">
<defs>
<clipPath id="c0_5"><path d="M110,842.5V110H629.1V842.5Z"/></clipPath>
<style type="text/css"><![CDATA[
.g0_5{
fill: #F1F1F1;
}
.g1_5{
}
]]></style>
</defs>
<path fill-rule="evenodd" d="M0,1286.5H909.7V0H0V1286.5Z" class="g0_5"/>
<g clip-path="url(#c0_5)">
<image clip-path="url(#c0_5)" preserveAspectRatio="none" x="110" y="110" width="519" height="733" xlink:href="img/1.jpg"/>
</g>
<path fill-rule="evenodd" d="M36.9,37.4h.5v-.6h-.5v.6Z" class="g1_5"/>
<path fill-rule="evenodd" d="M36.9,37.4h.5v-.6h-.5v.6Z" class="g1_5"/>
<path fill-rule="evenodd" d="M37.4,37.4H872.8v-.6H37.4v.6Z" class="g1_5"/>
<path fill-rule="evenodd" d="M872.8,37.4h.6v-.6h-.6v.6Z" class="g1_5"/>
<path fill-rule="evenodd" d="M872.8,37.4h.6v-.6h-.6v.6Z" class="g1_5"/>
<path fill-rule="evenodd" d="M36.9,1249.6h.5V37.4h-.5V1249.6Z" class="g1_5"/>
<path fill-rule="evenodd" d="M873.4,1249.6h.5V37.4h-.5V1249.6Z" class="g1_5"/>
<path fill-rule="evenodd" d="M872.8,1249.6h.6V37.4h-.6V1249.6Z" class="g1_5"/>
<path fill-rule="evenodd" d="M36.9,1250.1h.5v-.5h-.5v.5Z" class="g1_5"/>
<path fill-rule="evenodd" d="M36.9,1250.1h.5v-.5h-.5v.5Z" class="g1_5"/>
<path fill-rule="evenodd" d="M37.4,1250.7H872.8v-.6H37.4v.6Z" class="g1_5"/>
<path fill-rule="evenodd" d="M37.4,1250.1H872.8v-.5H37.4v.5Z" class="g1_5"/>
<path fill-rule="evenodd" d="M873.4,1250.7h.5v-1.1h-.5v1.1Z" class="g1_5"/>
<path fill-rule="evenodd" d="M872.8,1250.7h1.1v-.6h-1.1v.6Z" class="g1_5"/>
<path fill-rule="evenodd" d="M872.8,1250.1h.6v-.5h-.6v.5Z" class="g1_5"/>
<path fill-rule="evenodd" d="M872.8,1250.1h.6v-.5h-.6v.5Z" class="g1_5"/>
</svg>