<?xml version="1.0" encoding="UTF-8" standalone="no"?>
<!DOCTYPE svg PUBLIC "-//W3C//DTD SVG 1.1//EN"
"http://www.w3.org/Graphics/SVG/1.1/DTD/svg11.dtd">
<svg viewBox="0 0 909 1286" version="1.1" xmlns="http://www.w3.org/2000/svg" xmlns:xlink="http://www.w3.org/1999/xlink">
<defs>
<clipPath id="c0_4"><path d="M43.1,794.7V656.3H154.7V794.7Z"/></clipPath>
<style type="text/css"><![CDATA[
.g0_4{
fill: #4472C4;
}
.g1_4{
fill: #404040;
}
.g2_4{
}
.g3_4{
fill: #FFFFFF;
}
]]></style>
</defs>
<path fill-rule="evenodd" d="M42.9,838H155.2V656.4H42.9V838Z" class="g0_4"/>
<path fill-rule="evenodd" d="M42.9,809.9H155.2V656.5H42.9V809.9Z" class="g0_4"/>
<path fill-rule="evenodd" d="M155.2,838h711V656.4h-711V838Z" class="g1_4"/>
<path fill-rule="evenodd" d="M155.2,755.5h711V656.4h-711v99.1Z" class="g1_4"/>
<path fill-rule="evenodd" d="M155.2,836.4h711V755.5h-711v80.9Z" class="g1_4"/>
<path fill-rule="evenodd" d="M42.9,887.5H155.2V838H42.9v49.5Z" class="g0_4"/>
<path fill-rule="evenodd" d="M42.9,872.7H155.2V838H42.9v34.7Z" class="g0_4"/>
<path fill-rule="evenodd" d="M155.2,887.5h711V838h-711v49.5Z" class="g1_4"/>
<path fill-rule="evenodd" d="M155.2,887.5h711V847.4h-711v40.1Z" class="g1_4"/>
<path fill-rule="evenodd" d="M42.9,968.9H155.2V887.5H42.9v81.4Z" class="g0_4"/>
<path fill-rule="evenodd" d="M42.9,922.2H155.2V887.5H42.9v34.7Z" class="g0_4"/>
<path fill-rule="evenodd" d="M155.2,968.9h711V887.5h-711v81.4Z" class="g1_4"/>
<path fill-rule="evenodd" d="M155.2,918.9h711V887.5h-711v31.4Z" class="g1_4"/>
<path fill-rule="evenodd" d="M155.2,968.9h711v-50h-711v50Z" class="g1_4"/>
<image clip-path="url(#c0_4)" preserveAspectRatio="none" x="43" y="656" width="112" height="139" xlink:href="img/1.jpg"/>
<path fill-rule="evenodd" d="M38,39.6h.5V37.9H38v1.7Z" class="g2_4"/>
<path fill-rule="evenodd" d="M38,38.5h1.6v-.6H38v.6Z" class="g2_4"/>
<path fill-rule="evenodd" d="M38.5,39.6h.6V38.5h-.6v1.1Z" class="g3_4"/>
<path fill-rule="evenodd" d="M38.5,39h1.1v-.5H38.5V39Z" class="g3_4"/>
<path fill-rule="evenodd" d="M39.1,39.6h.5V39h-.5v.6Z" class="g2_4"/>
<path fill-rule="evenodd" d="M39.1,39.6h.5V39h-.5v.6Z" class="g2_4"/>
<path fill-rule="evenodd" d="M39.6,38.5h831v-.6H39.6v.6Z" class="g2_4"/>
<path fill-rule="evenodd" d="M39.6,39h831v-.5H39.6V39Z" class="g3_4"/>
<path fill-rule="evenodd" d="M39.6,39.6h831V39H39.6v.6Z" class="g2_4"/>
<path fill-rule="evenodd" d="M871.7,39.6h.6V37.9h-.6v1.7Z" class="g2_4"/>
<path fill-rule="evenodd" d="M870.6,38.5h1.7v-.6h-1.7v.6Z" class="g2_4"/>
<path fill-rule="evenodd" d="M871.2,39.6h.5V38.5h-.5v1.1Z" class="g3_4"/>
<path fill-rule="evenodd" d="M870.6,39h1.1v-.5h-1.1V39Z" class="g3_4"/>
<path fill-rule="evenodd" d="M870.6,39.6h.6V39h-.6v.6Z" class="g2_4"/>
<path fill-rule="evenodd" d="M870.6,39.6h.6V39h-.6v.6Z" class="g2_4"/>
<path fill-rule="evenodd" d="M38,1247.4h.5V39.6H38V1247.4Z" class="g2_4"/>
<path fill-rule="evenodd" d="M38.5,1247.4h.6V39.6h-.6V1247.4Z" class="g3_4"/>
<path fill-rule="evenodd" d="M39.1,1247.4h.5V39.6h-.5V1247.4Z" class="g2_4"/>
<path fill-rule="evenodd" d="M872.3,1247.4h1.6V39.6h-1.6V1247.4Z" class="g2_4"/>
<path fill-rule="evenodd" d="M871.7,1247.4h.6V39.6h-.6V1247.4Z" class="g2_4"/>
<path fill-rule="evenodd" d="M871.2,1247.4h.5V39.6h-.5V1247.4Z" class="g3_4"/>
<path fill-rule="evenodd" d="M870.6,1247.4h.6V39.6h-.6V1247.4Z" class="g2_4"/>
<path fill-rule="evenodd" d="M38,1249h.5v-1.6H38v1.6Z" class="g2_4"/>
<path fill-rule="evenodd" d="M38,1249h1.6v-.5H38v.5Z" class="g2_4"/>
<path fill-rule="evenodd" d="M38.5,1248.5h.6v-1.1h-.6v1.1Z" class="g3_4"/>
<path fill-rule="evenodd" d="M38.5,1248.5h1.1v-.6H38.5v.6Z" class="g3_4"/>
<path fill-rule="evenodd" d="M39.1,1247.9h.5v-.5h-.5v.5Z" class="g2_4"/>
<path fill-rule="evenodd" d="M39.1,1247.9h.5v-.5h-.5v.5Z" class="g2_4"/>
<path fill-rule="evenodd" d="M39.6,1250.7h831V1249H39.6v1.7Z" class="g2_4"/>
<path fill-rule="evenodd" d="M39.6,1249h831v-.5H39.6v.5Z" class="g2_4"/>
<path fill-rule="evenodd" d="M39.6,1248.5h831v-.6H39.6v.6Z" class="g3_4"/>
<path fill-rule="evenodd" d="M39.6,1247.9h831v-.5H39.6v.5Z" class="g2_4"/>
<path fill-rule="evenodd" d="M872.3,1250.7h1.6v-3.3h-1.6v3.3Z" class="g2_4"/>
<path fill-rule="evenodd" d="M870.6,1250.7h3.3V1249h-3.3v1.7Z" class="g2_4"/>
<path fill-rule="evenodd" d="M871.7,1249h.6v-1.6h-.6v1.6Z" class="g2_4"/>
<path fill-rule="evenodd" d="M870.6,1249h1.7v-.5h-1.7v.5Z" class="g2_4"/>
<path fill-rule="evenodd" d="M871.2,1248.5h.5v-1.1h-.5v1.1Z" class="g3_4"/>
<path fill-rule="evenodd" d="M870.6,1248.5h1.1v-.6h-1.1v.6Z" class="g3_4"/>
<path fill-rule="evenodd" d="M870.6,1247.9h.6v-.5h-.6v.5Z" class="g2_4"/>
<path fill-rule="evenodd" d="M870.6,1247.9h.6v-.5h-.6v.5Z" class="g2_4"/>
</svg>