<?xml version="1.0" encoding="UTF-8" standalone="no"?>
<!DOCTYPE svg PUBLIC "-//W3C//DTD SVG 1.1//EN"
"http://www.w3.org/Graphics/SVG/1.1/DTD/svg11.dtd">
<svg viewBox="0 0 909 1286" version="1.1" xmlns="http://www.w3.org/2000/svg" xmlns:xlink="http://www.w3.org/1999/xlink">
<defs>
<style type="text/css"><![CDATA[
.g0_2{
}
.g1_2{
fill: #FFFFFF;
}
]]></style>
</defs>
<path fill-rule="evenodd" d="M109.5,110.6h.6V110h-.6v.6Z" class="g0_2"/>
<path fill-rule="evenodd" d="M109.5,110.6h.6V110h-.6v.6Z" class="g0_2"/>
<path fill-rule="evenodd" d="M110.1,110.6H454V110H110.1v.6Z" class="g0_2"/>
<path fill-rule="evenodd" d="M454,110.6h.6V110H454v.6Z" class="g0_2"/>
<path fill-rule="evenodd" d="M454.6,110.6H798.5V110H454.6v.6Z" class="g0_2"/>
<path fill-rule="evenodd" d="M798.5,110.6h.6V110h-.6v.6Z" class="g0_2"/>
<path fill-rule="evenodd" d="M798.5,110.6h.6V110h-.6v.6Z" class="g0_2"/>
<path fill-rule="evenodd" d="M109.5,129.3h.6V110.6h-.6v18.7Z" class="g0_2"/>
<path fill-rule="evenodd" d="M454,129.3h.6V110.6H454v18.7Z" class="g0_2"/>
<path fill-rule="evenodd" d="M798.5,129.3h.6V110.6h-.6v18.7Z" class="g0_2"/>
<path fill-rule="evenodd" d="M109.5,129.9h.6v-.6h-.6v.6Z" class="g0_2"/>
<path fill-rule="evenodd" d="M110.1,129.9H454v-.6H110.1v.6Z" class="g0_2"/>
<path fill-rule="evenodd" d="M454,129.9h.6v-.6H454v.6Z" class="g0_2"/>
<path fill-rule="evenodd" d="M454.6,129.9H798.5v-.6H454.6v.6Z" class="g0_2"/>
<path fill-rule="evenodd" d="M798.5,129.9h.6v-.6h-.6v.6Z" class="g0_2"/>
<path fill-rule="evenodd" d="M109.5,148h.6V129.9h-.6V148Z" class="g0_2"/>
<path fill-rule="evenodd" d="M454,148h.6V129.9H454V148Z" class="g0_2"/>
<path fill-rule="evenodd" d="M798.5,148h.6V129.9h-.6V148Z" class="g0_2"/>
<path fill-rule="evenodd" d="M109.5,148.6h.6V148h-.6v.6Z" class="g0_2"/>
<path fill-rule="evenodd" d="M110.1,148.6H454V148H110.1v.6Z" class="g0_2"/>
<path fill-rule="evenodd" d="M454,148.6h.6V148H454v.6Z" class="g0_2"/>
<path fill-rule="evenodd" d="M454.6,148.6H798.5V148H454.6v.6Z" class="g0_2"/>
<path fill-rule="evenodd" d="M798.5,148.6h.6V148h-.6v.6Z" class="g0_2"/>
<path fill-rule="evenodd" d="M109.5,167.3h.6V148.6h-.6v18.7Z" class="g0_2"/>
<path fill-rule="evenodd" d="M454,167.3h.6V148.6H454v18.7Z" class="g0_2"/>
<path fill-rule="evenodd" d="M798.5,167.3h.6V148.6h-.6v18.7Z" class="g0_2"/>
<path fill-rule="evenodd" d="M109.5,167.8h.6v-.5h-.6v.5Z" class="g0_2"/>
<path fill-rule="evenodd" d="M110.1,167.8H454v-.5H110.1v.5Z" class="g0_2"/>
<path fill-rule="evenodd" d="M454,167.8h.6v-.5H454v.5Z" class="g0_2"/>
<path fill-rule="evenodd" d="M454.6,167.8H798.5v-.5H454.6v.5Z" class="g0_2"/>
<path fill-rule="evenodd" d="M798.5,167.8h.6v-.5h-.6v.5Z" class="g0_2"/>
<path fill-rule="evenodd" d="M109.5,186.5h.6V167.8h-.6v18.7Z" class="g0_2"/>
<path fill-rule="evenodd" d="M454,186.5h.6V167.8H454v18.7Z" class="g0_2"/>
<path fill-rule="evenodd" d="M798.5,186.5h.6V167.8h-.6v18.7Z" class="g0_2"/>
<path fill-rule="evenodd" d="M109.5,187.1h.6v-.6h-.6v.6Z" class="g0_2"/>
<path fill-rule="evenodd" d="M110.1,187.1H454v-.6H110.1v.6Z" class="g0_2"/>
<path fill-rule="evenodd" d="M454,187.1h.6v-.6H454v.6Z" class="g0_2"/>
<path fill-rule="evenodd" d="M454.6,187.1H798.5v-.6H454.6v.6Z" class="g0_2"/>
<path fill-rule="evenodd" d="M798.5,187.1h.6v-.6h-.6v.6Z" class="g0_2"/>
<path fill-rule="evenodd" d="M109.5,205.8h.6V187.1h-.6v18.7Z" class="g0_2"/>
<path fill-rule="evenodd" d="M454,205.8h.6V187.1H454v18.7Z" class="g0_2"/>
<path fill-rule="evenodd" d="M798.5,205.8h.6V187.1h-.6v18.7Z" class="g0_2"/>
<path fill-rule="evenodd" d="M109.5,206.3h.6v-.5h-.6v.5Z" class="g0_2"/>
<path fill-rule="evenodd" d="M110.1,206.3H454v-.5H110.1v.5Z" class="g0_2"/>
<path fill-rule="evenodd" d="M454,206.3h.6v-.5H454v.5Z" class="g0_2"/>
<path fill-rule="evenodd" d="M454.6,206.3H798.5v-.5H454.6v.5Z" class="g0_2"/>
<path fill-rule="evenodd" d="M798.5,206.3h.6v-.5h-.6v.5Z" class="g0_2"/>
<path fill-rule="evenodd" d="M109.5,224.5h.6V206.3h-.6v18.2Z" class="g0_2"/>
<path fill-rule="evenodd" d="M454,224.5h.6V206.3H454v18.2Z" class="g0_2"/>
<path fill-rule="evenodd" d="M798.5,224.5h.6V206.3h-.6v18.2Z" class="g0_2"/>
<path fill-rule="evenodd" d="M109.5,225.1h.6v-.6h-.6v.6Z" class="g0_2"/>
<path fill-rule="evenodd" d="M110.1,225.1H454v-.6H110.1v.6Z" class="g0_2"/>
<path fill-rule="evenodd" d="M454,225.1h.6v-.6H454v.6Z" class="g0_2"/>
<path fill-rule="evenodd" d="M454.6,225.1H798.5v-.6H454.6v.6Z" class="g0_2"/>
<path fill-rule="evenodd" d="M798.5,225.1h.6v-.6h-.6v.6Z" class="g0_2"/>
<path fill-rule="evenodd" d="M109.5,295.5h.6V225.1h-.6v70.4Z" class="g0_2"/>
<path fill-rule="evenodd" d="M454,295.5h.6V225.1H454v70.4Z" class="g0_2"/>
<path fill-rule="evenodd" d="M798.5,295.5h.6V225.1h-.6v70.4Z" class="g0_2"/>
<path fill-rule="evenodd" d="M109.5,296h.6v-.5h-.6v.5Z" class="g0_2"/>
<path fill-rule="evenodd" d="M110.1,296H454v-.5H110.1v.5Z" class="g0_2"/>
<path fill-rule="evenodd" d="M454,296h.6v-.5H454v.5Z" class="g0_2"/>
<path fill-rule="evenodd" d="M454.6,296H798.5v-.5H454.6v.5Z" class="g0_2"/>
<path fill-rule="evenodd" d="M798.5,296h.6v-.5h-.6v.5Z" class="g0_2"/>
<path fill-rule="evenodd" d="M109.5,332.9h.6V296h-.6v36.9Z" class="g0_2"/>
<path fill-rule="evenodd" d="M454,332.9h.6V296H454v36.9Z" class="g0_2"/>
<path fill-rule="evenodd" d="M798.5,332.9h.6V296h-.6v36.9Z" class="g0_2"/>
<path fill-rule="evenodd" d="M109.5,333.5h.6v-.6h-.6v.6Z" class="g0_2"/>
<path fill-rule="evenodd" d="M110.1,333.5H454v-.6H110.1v.6Z" class="g0_2"/>
<path fill-rule="evenodd" d="M454,333.5h.6v-.6H454v.6Z" class="g0_2"/>
<path fill-rule="evenodd" d="M454.6,333.5H798.5v-.6H454.6v.6Z" class="g0_2"/>
<path fill-rule="evenodd" d="M798.5,333.5h.6v-.6h-.6v.6Z" class="g0_2"/>
<path fill-rule="evenodd" d="M109.5,352.2h.6V333.5h-.6v18.7Z" class="g0_2"/>
<path fill-rule="evenodd" d="M454,352.2h.6V333.5H454v18.7Z" class="g0_2"/>
<path fill-rule="evenodd" d="M798.5,352.2h.6V333.5h-.6v18.7Z" class="g0_2"/>
<path fill-rule="evenodd" d="M109.5,352.7h.6v-.5h-.6v.5Z" class="g0_2"/>
<path fill-rule="evenodd" d="M110.1,352.7H454v-.5H110.1v.5Z" class="g0_2"/>
<path fill-rule="evenodd" d="M454,352.7h.6v-.5H454v.5Z" class="g0_2"/>
<path fill-rule="evenodd" d="M454.6,352.7H798.5v-.5H454.6v.5Z" class="g0_2"/>
<path fill-rule="evenodd" d="M798.5,352.7h.6v-.5h-.6v.5Z" class="g0_2"/>
<path fill-rule="evenodd" d="M109.5,371.4h.6V352.7h-.6v18.7Z" class="g0_2"/>
<path fill-rule="evenodd" d="M454,371.4h.6V352.7H454v18.7Z" class="g0_2"/>
<path fill-rule="evenodd" d="M798.5,371.4h.6V352.7h-.6v18.7Z" class="g0_2"/>
<path fill-rule="evenodd" d="M109.5,372h.6v-.6h-.6v.6Z" class="g0_2"/>
<path fill-rule="evenodd" d="M110.1,372H454v-.6H110.1v.6Z" class="g0_2"/>
<path fill-rule="evenodd" d="M454,372h.6v-.6H454v.6Z" class="g0_2"/>
<path fill-rule="evenodd" d="M454.6,372H798.5v-.6H454.6v.6Z" class="g0_2"/>
<path fill-rule="evenodd" d="M798.5,372h.6v-.6h-.6v.6Z" class="g0_2"/>
<path fill-rule="evenodd" d="M109.5,390.7h.6V371.9h-.6v18.8Z" class="g0_2"/>
<path fill-rule="evenodd" d="M454,390.7h.6V371.9H454v18.8Z" class="g0_2"/>
<path fill-rule="evenodd" d="M798.5,390.7h.6V371.9h-.6v18.8Z" class="g0_2"/>
<path fill-rule="evenodd" d="M109.5,391.2h.6v-.5h-.6v.5Z" class="g0_2"/>
<path fill-rule="evenodd" d="M110.1,391.2H454v-.5H110.1v.5Z" class="g0_2"/>
<path fill-rule="evenodd" d="M454,391.2h.6v-.5H454v.5Z" class="g0_2"/>
<path fill-rule="evenodd" d="M454.6,391.2H798.5v-.5H454.6v.5Z" class="g0_2"/>
<path fill-rule="evenodd" d="M798.5,391.2h.6v-.5h-.6v.5Z" class="g0_2"/>
<path fill-rule="evenodd" d="M109.5,409.4h.6V391.2h-.6v18.2Z" class="g0_2"/>
<path fill-rule="evenodd" d="M454,409.4h.6V391.2H454v18.2Z" class="g0_2"/>
<path fill-rule="evenodd" d="M798.5,409.4h.6V391.2h-.6v18.2Z" class="g0_2"/>
<path fill-rule="evenodd" d="M109.5,409.9h.6v-.5h-.6v.5Z" class="g0_2"/>
<path fill-rule="evenodd" d="M110.1,409.9H454v-.5H110.1v.5Z" class="g0_2"/>
<path fill-rule="evenodd" d="M454,409.9h.6v-.5H454v.5Z" class="g0_2"/>
<path fill-rule="evenodd" d="M454.6,409.9H798.5v-.5H454.6v.5Z" class="g0_2"/>
<path fill-rule="evenodd" d="M798.5,409.9h.6v-.5h-.6v.5Z" class="g0_2"/>
<path fill-rule="evenodd" d="M109.5,446.8h.6V409.9h-.6v36.9Z" class="g0_2"/>
<path fill-rule="evenodd" d="M454,446.8h.6V409.9H454v36.9Z" class="g0_2"/>
<path fill-rule="evenodd" d="M798.5,446.8h.6V409.9h-.6v36.9Z" class="g0_2"/>
<path fill-rule="evenodd" d="M109.5,447.3h.6v-.5h-.6v.5Z" class="g0_2"/>
<path fill-rule="evenodd" d="M110.1,447.3H454v-.5H110.1v.5Z" class="g0_2"/>
<path fill-rule="evenodd" d="M454,447.3h.6v-.5H454v.5Z" class="g0_2"/>
<path fill-rule="evenodd" d="M454.6,447.3H798.5v-.5H454.6v.5Z" class="g0_2"/>
<path fill-rule="evenodd" d="M798.5,447.3h.6v-.5h-.6v.5Z" class="g0_2"/>
<path fill-rule="evenodd" d="M109.5,521.1h.6V447.3h-.6v73.8Z" class="g0_2"/>
<path fill-rule="evenodd" d="M109.5,521.6h.6v-.5h-.6v.5Z" class="g0_2"/>
<path fill-rule="evenodd" d="M109.5,521.6h.6v-.5h-.6v.5Z" class="g0_2"/>
<path fill-rule="evenodd" d="M110.1,521.6H454v-.5H110.1v.5Z" class="g0_2"/>
<path fill-rule="evenodd" d="M454,521.1h.6V447.3H454v73.8Z" class="g0_2"/>
<path fill-rule="evenodd" d="M454,521.6h.6v-.5H454v.5Z" class="g0_2"/>
<path fill-rule="evenodd" d="M454.6,521.6H798.5v-.5H454.6v.5Z" class="g0_2"/>
<path fill-rule="evenodd" d="M798.5,521.1h.6V447.3h-.6v73.8Z" class="g0_2"/>
<path fill-rule="evenodd" d="M798.5,521.6h.6v-.5h-.6v.5Z" class="g0_2"/>
<path fill-rule="evenodd" d="M798.5,521.6h.6v-.5h-.6v.5Z" class="g0_2"/>
<path fill-rule="evenodd" d="M38,39.6h.5V37.9H38v1.7Z" class="g0_2"/>
<path fill-rule="evenodd" d="M38,38.5h1.6v-.6H38v.6Z" class="g0_2"/>
<path fill-rule="evenodd" d="M38.5,39.6h.6V38.5h-.6v1.1Z" class="g1_2"/>
<path fill-rule="evenodd" d="M38.5,39h1.1v-.5H38.5V39Z" class="g1_2"/>
<path fill-rule="evenodd" d="M39.1,39.6h.5V39h-.5v.6Z" class="g0_2"/>
<path fill-rule="evenodd" d="M39.1,39.6h.5V39h-.5v.6Z" class="g0_2"/>
<path fill-rule="evenodd" d="M39.6,38.5h831v-.6H39.6v.6Z" class="g0_2"/>
<path fill-rule="evenodd" d="M39.6,39h831v-.5H39.6V39Z" class="g1_2"/>
<path fill-rule="evenodd" d="M39.6,39.6h831V39H39.6v.6Z" class="g0_2"/>
<path fill-rule="evenodd" d="M871.7,39.6h.6V37.9h-.6v1.7Z" class="g0_2"/>
<path fill-rule="evenodd" d="M870.6,38.5h1.7v-.6h-1.7v.6Z" class="g0_2"/>
<path fill-rule="evenodd" d="M871.2,39.6h.5V38.5h-.5v1.1Z" class="g1_2"/>
<path fill-rule="evenodd" d="M870.6,39h1.1v-.5h-1.1V39Z" class="g1_2"/>
<path fill-rule="evenodd" d="M870.6,39.6h.6V39h-.6v.6Z" class="g0_2"/>
<path fill-rule="evenodd" d="M870.6,39.6h.6V39h-.6v.6Z" class="g0_2"/>
<path fill-rule="evenodd" d="M38,1247.4h.5V39.6H38V1247.4Z" class="g0_2"/>
<path fill-rule="evenodd" d="M38.5,1247.4h.6V39.6h-.6V1247.4Z" class="g1_2"/>
<path fill-rule="evenodd" d="M39.1,1247.4h.5V39.6h-.5V1247.4Z" class="g0_2"/>
<path fill-rule="evenodd" d="M872.3,1247.4h1.6V39.6h-1.6V1247.4Z" class="g0_2"/>
<path fill-rule="evenodd" d="M871.7,1247.4h.6V39.6h-.6V1247.4Z" class="g0_2"/>
<path fill-rule="evenodd" d="M871.2,1247.4h.5V39.6h-.5V1247.4Z" class="g1_2"/>
<path fill-rule="evenodd" d="M870.6,1247.4h.6V39.6h-.6V1247.4Z" class="g0_2"/>
<path fill-rule="evenodd" d="M38,1249h.5v-1.6H38v1.6Z" class="g0_2"/>
<path fill-rule="evenodd" d="M38,1249h1.6v-.5H38v.5Z" class="g0_2"/>
<path fill-rule="evenodd" d="M38.5,1248.5h.6v-1.1h-.6v1.1Z" class="g1_2"/>
<path fill-rule="evenodd" d="M38.5,1248.5h1.1v-.6H38.5v.6Z" class="g1_2"/>
<path fill-rule="evenodd" d="M39.1,1247.9h.5v-.5h-.5v.5Z" class="g0_2"/>
<path fill-rule="evenodd" d="M39.1,1247.9h.5v-.5h-.5v.5Z" class="g0_2"/>
<path fill-rule="evenodd" d="M39.6,1250.7h831V1249H39.6v1.7Z" class="g0_2"/>
<path fill-rule="evenodd" d="M39.6,1249h831v-.5H39.6v.5Z" class="g0_2"/>
<path fill-rule="evenodd" d="M39.6,1248.5h831v-.6H39.6v.6Z" class="g1_2"/>
<path fill-rule="evenodd" d="M39.6,1247.9h831v-.5H39.6v.5Z" class="g0_2"/>
<path fill-rule="evenodd" d="M872.3,1250.7h1.6v-3.3h-1.6v3.3Z" class="g0_2"/>
<path fill-rule="evenodd" d="M870.6,1250.7h3.3V1249h-3.3v1.7Z" class="g0_2"/>
<path fill-rule="evenodd" d="M871.7,1249h.6v-1.6h-.6v1.6Z" class="g0_2"/>
<path fill-rule="evenodd" d="M870.6,1249h1.7v-.5h-1.7v.5Z" class="g0_2"/>
<path fill-rule="evenodd" d="M871.2,1248.5h.5v-1.1h-.5v1.1Z" class="g1_2"/>
<path fill-rule="evenodd" d="M870.6,1248.5h1.1v-.6h-1.1v.6Z" class="g1_2"/>
<path fill-rule="evenodd" d="M870.6,1247.9h.6v-.5h-.6v.5Z" class="g0_2"/>
<path fill-rule="evenodd" d="M870.6,1247.9h.6v-.5h-.6v.5Z" class="g0_2"/>
</svg>