<?xml version="1.0" encoding="UTF-8" standalone="no"?>
<!DOCTYPE svg PUBLIC "-//W3C//DTD SVG 1.1//EN"
"http://www.w3.org/Graphics/SVG/1.1/DTD/svg11.dtd">
<svg viewBox="0 0 909 1286" version="1.1" xmlns="http://www.w3.org/2000/svg" xmlns:xlink="http://www.w3.org/1999/xlink">
<defs>
<clipPath id="c0_3"><path d="M96.3,360.4V115.5H813.9V360.4Z"/></clipPath>
<style type="text/css"><![CDATA[
.g0_3{
}
.g1_3{
fill: #FFFFFF;
}
]]></style>
</defs>
<g clip-path="url(#c0_3)">
<path fill-rule="evenodd" d="M110.1,116.1h.5v-.6h-.5v.6Z" class="g0_3"/>
<path fill-rule="evenodd" d="M110.1,116.1h.5v-.6h-.5v.6Z" class="g0_3"/>
<path fill-rule="evenodd" d="M110.6,116.1h344v-.6h-344v.6Z" class="g0_3"/>
<path fill-rule="evenodd" d="M454.6,116.1h.5v-.6h-.5v.6Z" class="g0_3"/>
<path fill-rule="evenodd" d="M455.1,116.1h344v-.6h-344v.6Z" class="g0_3"/>
<path fill-rule="evenodd" d="M799.1,116.1h.5v-.6h-.5v.6Z" class="g0_3"/>
<path fill-rule="evenodd" d="M799.1,116.1h.5v-.6h-.5v.6Z" class="g0_3"/>
</g>
<path fill-rule="evenodd" d="M110.1,134.8h.5V116.1h-.5v18.7Z" class="g0_3"/>
<path fill-rule="evenodd" d="M454.6,134.8h.5V116.1h-.5v18.7Z" class="g0_3"/>
<path fill-rule="evenodd" d="M799.1,134.8h.5V116.1h-.5v18.7Z" class="g0_3"/>
<path fill-rule="evenodd" d="M110.1,135.4h.5v-.6h-.5v.6Z" class="g0_3"/>
<path fill-rule="evenodd" d="M110.6,135.4h344v-.6h-344v.6Z" class="g0_3"/>
<path fill-rule="evenodd" d="M454.6,135.4h.5v-.6h-.5v.6Z" class="g0_3"/>
<path fill-rule="evenodd" d="M455.1,135.4h344v-.6h-344v.6Z" class="g0_3"/>
<path fill-rule="evenodd" d="M799.1,135.4h.5v-.6h-.5v.6Z" class="g0_3"/>
<path fill-rule="evenodd" d="M110.1,190.4h.5v-55h-.5v55Z" class="g0_3"/>
<path fill-rule="evenodd" d="M454.6,190.4h.5v-55h-.5v55Z" class="g0_3"/>
<path fill-rule="evenodd" d="M799.1,190.4h.5v-55h-.5v55Z" class="g0_3"/>
<path fill-rule="evenodd" d="M110.1,190.9h.5v-.5h-.5v.5Z" class="g0_3"/>
<path fill-rule="evenodd" d="M110.6,190.9h344v-.5h-344v.5Z" class="g0_3"/>
<path fill-rule="evenodd" d="M454.6,190.9h.5v-.5h-.5v.5Z" class="g0_3"/>
<path fill-rule="evenodd" d="M455.1,190.9h344v-.5h-344v.5Z" class="g0_3"/>
<path fill-rule="evenodd" d="M799.1,190.9h.5v-.5h-.5v.5Z" class="g0_3"/>
<path fill-rule="evenodd" d="M110.1,209.6h.5V190.9h-.5v18.7Z" class="g0_3"/>
<path fill-rule="evenodd" d="M454.6,209.6h.5V190.9h-.5v18.7Z" class="g0_3"/>
<path fill-rule="evenodd" d="M799.1,209.6h.5V190.9h-.5v18.7Z" class="g0_3"/>
<path fill-rule="evenodd" d="M110.1,210.2h.5v-.6h-.5v.6Z" class="g0_3"/>
<path fill-rule="evenodd" d="M110.6,210.2h344v-.6h-344v.6Z" class="g0_3"/>
<path fill-rule="evenodd" d="M454.6,210.2h.5v-.6h-.5v.6Z" class="g0_3"/>
<path fill-rule="evenodd" d="M455.1,210.2h344v-.6h-344v.6Z" class="g0_3"/>
<path fill-rule="evenodd" d="M799.1,210.2h.5v-.6h-.5v.6Z" class="g0_3"/>
<path fill-rule="evenodd" d="M110.1,228.9h.5V210.2h-.5v18.7Z" class="g0_3"/>
<path fill-rule="evenodd" d="M454.6,228.9h.5V210.2h-.5v18.7Z" class="g0_3"/>
<path fill-rule="evenodd" d="M799.1,228.9h.5V210.2h-.5v18.7Z" class="g0_3"/>
<path fill-rule="evenodd" d="M110.1,229.5h.5v-.6h-.5v.6Z" class="g0_3"/>
<path fill-rule="evenodd" d="M110.6,229.5h344v-.6h-344v.6Z" class="g0_3"/>
<path fill-rule="evenodd" d="M454.6,229.5h.5v-.6h-.5v.6Z" class="g0_3"/>
<path fill-rule="evenodd" d="M455.1,229.5h344v-.6h-344v.6Z" class="g0_3"/>
<path fill-rule="evenodd" d="M799.1,229.5h.5v-.6h-.5v.6Z" class="g0_3"/>
<path fill-rule="evenodd" d="M110.1,266.3h.5V229.5h-.5v36.8Z" class="g0_3"/>
<path fill-rule="evenodd" d="M454.6,266.3h.5V229.5h-.5v36.8Z" class="g0_3"/>
<path fill-rule="evenodd" d="M799.1,266.3h.5V229.5h-.5v36.8Z" class="g0_3"/>
<path fill-rule="evenodd" d="M110.1,266.9h.5v-.6h-.5v.6Z" class="g0_3"/>
<path fill-rule="evenodd" d="M110.6,266.9h344v-.6h-344v.6Z" class="g0_3"/>
<path fill-rule="evenodd" d="M454.6,266.9h.5v-.6h-.5v.6Z" class="g0_3"/>
<path fill-rule="evenodd" d="M455.1,266.9h344v-.6h-344v.6Z" class="g0_3"/>
<path fill-rule="evenodd" d="M799.1,266.9h.5v-.6h-.5v.6Z" class="g0_3"/>
<path fill-rule="evenodd" d="M110.1,285h.5V266.9h-.5V285Z" class="g0_3"/>
<path fill-rule="evenodd" d="M454.6,285h.5V266.9h-.5V285Z" class="g0_3"/>
<path fill-rule="evenodd" d="M799.1,285h.5V266.9h-.5V285Z" class="g0_3"/>
<path fill-rule="evenodd" d="M110.1,285.6h.5V285h-.5v.6Z" class="g0_3"/>
<path fill-rule="evenodd" d="M110.6,285.6h344V285h-344v.6Z" class="g0_3"/>
<path fill-rule="evenodd" d="M454.6,285.6h.5V285h-.5v.6Z" class="g0_3"/>
<path fill-rule="evenodd" d="M455.1,285.6h344V285h-344v.6Z" class="g0_3"/>
<path fill-rule="evenodd" d="M799.1,285.6h.5V285h-.5v.6Z" class="g0_3"/>
<path fill-rule="evenodd" d="M110.1,359.9h.5V285.6h-.5v74.3Z" class="g0_3"/>
<path fill-rule="evenodd" d="M110.1,360.4h.5v-.5h-.5v.5Z" class="g0_3"/>
<path fill-rule="evenodd" d="M110.1,360.4h.5v-.5h-.5v.5Z" class="g0_3"/>
<path fill-rule="evenodd" d="M110.6,360.4h344v-.5h-344v.5Z" class="g0_3"/>
<path fill-rule="evenodd" d="M454.6,359.9h.5V285.6h-.5v74.3Z" class="g0_3"/>
<path fill-rule="evenodd" d="M454.6,360.4h.5v-.5h-.5v.5Z" class="g0_3"/>
<path fill-rule="evenodd" d="M455.1,360.4h344v-.5h-344v.5Z" class="g0_3"/>
<path fill-rule="evenodd" d="M799.1,359.9h.5V285.6h-.5v74.3Z" class="g0_3"/>
<path fill-rule="evenodd" d="M799.1,360.4h.5v-.5h-.5v.5Z" class="g0_3"/>
<path fill-rule="evenodd" d="M799.1,360.4h.5v-.5h-.5v.5Z" class="g0_3"/>
<path fill-rule="evenodd" d="M38,39.6h.5V37.9H38v1.7Z" class="g0_3"/>
<path fill-rule="evenodd" d="M38,38.5h1.6v-.6H38v.6Z" class="g0_3"/>
<path fill-rule="evenodd" d="M38.5,39.6h.6V38.5h-.6v1.1Z" class="g1_3"/>
<path fill-rule="evenodd" d="M38.5,39h1.1v-.5H38.5V39Z" class="g1_3"/>
<path fill-rule="evenodd" d="M39.1,39.6h.5V39h-.5v.6Z" class="g0_3"/>
<path fill-rule="evenodd" d="M39.1,39.6h.5V39h-.5v.6Z" class="g0_3"/>
<path fill-rule="evenodd" d="M39.6,38.5h831v-.6H39.6v.6Z" class="g0_3"/>
<path fill-rule="evenodd" d="M39.6,39h831v-.5H39.6V39Z" class="g1_3"/>
<path fill-rule="evenodd" d="M39.6,39.6h831V39H39.6v.6Z" class="g0_3"/>
<path fill-rule="evenodd" d="M871.7,39.6h.6V37.9h-.6v1.7Z" class="g0_3"/>
<path fill-rule="evenodd" d="M870.6,38.5h1.7v-.6h-1.7v.6Z" class="g0_3"/>
<path fill-rule="evenodd" d="M871.2,39.6h.5V38.5h-.5v1.1Z" class="g1_3"/>
<path fill-rule="evenodd" d="M870.6,39h1.1v-.5h-1.1V39Z" class="g1_3"/>
<path fill-rule="evenodd" d="M870.6,39.6h.6V39h-.6v.6Z" class="g0_3"/>
<path fill-rule="evenodd" d="M870.6,39.6h.6V39h-.6v.6Z" class="g0_3"/>
<path fill-rule="evenodd" d="M38,1247.4h.5V39.6H38V1247.4Z" class="g0_3"/>
<path fill-rule="evenodd" d="M38.5,1247.4h.6V39.6h-.6V1247.4Z" class="g1_3"/>
<path fill-rule="evenodd" d="M39.1,1247.4h.5V39.6h-.5V1247.4Z" class="g0_3"/>
<path fill-rule="evenodd" d="M872.3,1247.4h1.6V39.6h-1.6V1247.4Z" class="g0_3"/>
<path fill-rule="evenodd" d="M871.7,1247.4h.6V39.6h-.6V1247.4Z" class="g0_3"/>
<path fill-rule="evenodd" d="M871.2,1247.4h.5V39.6h-.5V1247.4Z" class="g1_3"/>
<path fill-rule="evenodd" d="M870.6,1247.4h.6V39.6h-.6V1247.4Z" class="g0_3"/>
<path fill-rule="evenodd" d="M38,1249h.5v-1.6H38v1.6Z" class="g0_3"/>
<path fill-rule="evenodd" d="M38,1249h1.6v-.5H38v.5Z" class="g0_3"/>
<path fill-rule="evenodd" d="M38.5,1248.5h.6v-1.1h-.6v1.1Z" class="g1_3"/>
<path fill-rule="evenodd" d="M38.5,1248.5h1.1v-.6H38.5v.6Z" class="g1_3"/>
<path fill-rule="evenodd" d="M39.1,1247.9h.5v-.5h-.5v.5Z" class="g0_3"/>
<path fill-rule="evenodd" d="M39.1,1247.9h.5v-.5h-.5v.5Z" class="g0_3"/>
<path fill-rule="evenodd" d="M39.6,1250.7h831V1249H39.6v1.7Z" class="g0_3"/>
<path fill-rule="evenodd" d="M39.6,1249h831v-.5H39.6v.5Z" class="g0_3"/>
<path fill-rule="evenodd" d="M39.6,1248.5h831v-.6H39.6v.6Z" class="g1_3"/>
<path fill-rule="evenodd" d="M39.6,1247.9h831v-.5H39.6v.5Z" class="g0_3"/>
<path fill-rule="evenodd" d="M872.3,1250.7h1.6v-3.3h-1.6v3.3Z" class="g0_3"/>
<path fill-rule="evenodd" d="M870.6,1250.7h3.3V1249h-3.3v1.7Z" class="g0_3"/>
<path fill-rule="evenodd" d="M871.7,1249h.6v-1.6h-.6v1.6Z" class="g0_3"/>
<path fill-rule="evenodd" d="M870.6,1249h1.7v-.5h-1.7v.5Z" class="g0_3"/>
<path fill-rule="evenodd" d="M871.2,1248.5h.5v-1.1h-.5v1.1Z" class="g1_3"/>
<path fill-rule="evenodd" d="M870.6,1248.5h1.1v-.6h-1.1v.6Z" class="g1_3"/>
<path fill-rule="evenodd" d="M870.6,1247.9h.6v-.5h-.6v.5Z" class="g0_3"/>
<path fill-rule="evenodd" d="M870.6,1247.9h.6v-.5h-.6v.5Z" class="g0_3"/>
</svg>