<?xml version="1.0" encoding="UTF-8" standalone="no"?>
<!DOCTYPE svg PUBLIC "-//W3C//DTD SVG 1.1//EN"
"http://www.w3.org/Graphics/SVG/1.1/DTD/svg11.dtd">
<svg viewBox="0 0 909 1286" version="1.1" xmlns="http://www.w3.org/2000/svg" xmlns:xlink="http://www.w3.org/1999/xlink">
<defs>
<style type="text/css"><![CDATA[
.g0_6{
}
.g1_6{
fill: #BEBEBE;
}
.g2_6{
fill: #FFFFFF;
}
]]></style>
</defs>
<path fill-rule="evenodd" d="M165.1,335.1h.6v-.5h-.6v.5Z" class="g0_6"/>
<path fill-rule="evenodd" d="M165.1,335.1h.6v-.5h-.6v.5Z" class="g0_6"/>
<path fill-rule="evenodd" d="M165.7,335.1H373.1v-.5H165.7v.5Z" class="g0_6"/>
<path fill-rule="evenodd" d="M373.1,335.1h.6v-.5h-.6v.5Z" class="g0_6"/>
<path fill-rule="evenodd" d="M373.7,335.1H582.2v-.5H373.7v.5Z" class="g0_6"/>
<path fill-rule="evenodd" d="M582.2,335.1h.6v-.5h-.6v.5Z" class="g0_6"/>
<path fill-rule="evenodd" d="M582.8,335.1H799.1v-.5H582.8v.5Z" class="g0_6"/>
<path fill-rule="evenodd" d="M799.1,335.1h.5v-.5h-.5v.5Z" class="g0_6"/>
<path fill-rule="evenodd" d="M799.1,335.1h.5v-.5h-.5v.5Z" class="g0_6"/>
<path fill-rule="evenodd" d="M165.1,440.2h.6V335.1h-.6V440.2Z" class="g0_6"/>
<path fill-rule="evenodd" d="M373.1,440.2h.6V335.1h-.6V440.2Z" class="g0_6"/>
<path fill-rule="evenodd" d="M582.2,440.2h.6V335.1h-.6V440.2Z" class="g0_6"/>
<path fill-rule="evenodd" d="M799.1,440.2h.5V335.1h-.5V440.2Z" class="g0_6"/>
<path fill-rule="evenodd" d="M165.1,440.7h.6v-.5h-.6v.5Z" class="g0_6"/>
<path fill-rule="evenodd" d="M165.7,440.7H373.1v-.5H165.7v.5Z" class="g0_6"/>
<path fill-rule="evenodd" d="M373.1,440.7h.6v-.5h-.6v.5Z" class="g0_6"/>
<path fill-rule="evenodd" d="M373.7,440.7H582.2v-.5H373.7v.5Z" class="g0_6"/>
<path fill-rule="evenodd" d="M582.2,440.7h.6v-.5h-.6v.5Z" class="g0_6"/>
<path fill-rule="evenodd" d="M582.8,440.7H799.1v-.5H582.8v.5Z" class="g0_6"/>
<path fill-rule="evenodd" d="M799.1,440.7h.5v-.5h-.5v.5Z" class="g0_6"/>
<path fill-rule="evenodd" d="M165.1,584.4h.6V440.7h-.6V584.4Z" class="g0_6"/>
<path fill-rule="evenodd" d="M373.1,584.4h.6V440.7h-.6V584.4Z" class="g0_6"/>
<path fill-rule="evenodd" d="M582.2,584.4h.6V440.7h-.6V584.4Z" class="g0_6"/>
<path fill-rule="evenodd" d="M799.1,584.4h.5V440.7h-.5V584.4Z" class="g0_6"/>
<path fill-rule="evenodd" d="M165.1,584.9h.6v-.5h-.6v.5Z" class="g0_6"/>
<path fill-rule="evenodd" d="M165.7,584.9H373.1v-.5H165.7v.5Z" class="g0_6"/>
<path fill-rule="evenodd" d="M373.1,584.9h.6v-.5h-.6v.5Z" class="g0_6"/>
<path fill-rule="evenodd" d="M373.7,584.9H582.2v-.5H373.7v.5Z" class="g0_6"/>
<path fill-rule="evenodd" d="M582.2,584.9h.6v-.5h-.6v.5Z" class="g0_6"/>
<path fill-rule="evenodd" d="M582.8,584.9H799.1v-.5H582.8v.5Z" class="g0_6"/>
<path fill-rule="evenodd" d="M799.1,584.9h.5v-.5h-.5v.5Z" class="g0_6"/>
<path fill-rule="evenodd" d="M165.1,708.7h.6V584.9h-.6V708.7Z" class="g0_6"/>
<path fill-rule="evenodd" d="M165.1,709.2h.6v-.5h-.6v.5Z" class="g0_6"/>
<path fill-rule="evenodd" d="M165.1,709.2h.6v-.5h-.6v.5Z" class="g0_6"/>
<path fill-rule="evenodd" d="M165.7,709.2H373.1v-.5H165.7v.5Z" class="g0_6"/>
<path fill-rule="evenodd" d="M373.1,708.7h.6V584.9h-.6V708.7Z" class="g0_6"/>
<path fill-rule="evenodd" d="M373.1,709.2h.6v-.5h-.6v.5Z" class="g0_6"/>
<path fill-rule="evenodd" d="M373.7,709.2H582.2v-.5H373.7v.5Z" class="g0_6"/>
<path fill-rule="evenodd" d="M582.2,708.7h.6V584.9h-.6V708.7Z" class="g0_6"/>
<path fill-rule="evenodd" d="M582.2,709.2h.6v-.5h-.6v.5Z" class="g0_6"/>
<path fill-rule="evenodd" d="M582.8,709.2H799.1v-.5H582.8v.5Z" class="g0_6"/>
<path fill-rule="evenodd" d="M799.1,708.7h.5V584.9h-.5V708.7Z" class="g0_6"/>
<path fill-rule="evenodd" d="M799.1,709.2h.5v-.5h-.5v.5Z" class="g0_6"/>
<path fill-rule="evenodd" d="M799.1,709.2h.5v-.5h-.5v.5Z" class="g0_6"/>
<path fill-rule="evenodd" d="M110.1,820.9h.5v-.5h-.5v.5Z" class="g1_6"/>
<path fill-rule="evenodd" d="M110.1,820.9h.5v-.5h-.5v.5Z" class="g1_6"/>
<path fill-rule="evenodd" d="M110.6,820.9H347.8v-.5H110.6v.5Z" class="g1_6"/>
<path fill-rule="evenodd" d="M347.8,820.9h.6v-.5h-.6v.5Z" class="g1_6"/>
<path fill-rule="evenodd" d="M348.4,820.9H510.1v-.5H348.4v.5Z" class="g1_6"/>
<path fill-rule="evenodd" d="M510.1,820.9h.6v-.5h-.6v.5Z" class="g1_6"/>
<path fill-rule="evenodd" d="M510.7,820.9H799.1v-.5H510.7v.5Z" class="g1_6"/>
<path fill-rule="evenodd" d="M799.1,820.9h.5v-.5h-.5v.5Z" class="g1_6"/>
<path fill-rule="evenodd" d="M799.1,820.9h.5v-.5h-.5v.5Z" class="g1_6"/>
<path fill-rule="evenodd" d="M110.1,855.1h.5V820.9h-.5v34.2Z" class="g1_6"/>
<path fill-rule="evenodd" d="M110.1,855.6h.5v-.5h-.5v.5Z" class="g1_6"/>
<path fill-rule="evenodd" d="M110.1,855.6h.5v-.5h-.5v.5Z" class="g1_6"/>
<path fill-rule="evenodd" d="M110.6,855.6H347.8v-.5H110.6v.5Z" class="g1_6"/>
<path fill-rule="evenodd" d="M347.8,855.1h.6V820.9h-.6v34.2Z" class="g1_6"/>
<path fill-rule="evenodd" d="M347.8,855.6h.6v-.5h-.6v.5Z" class="g1_6"/>
<path fill-rule="evenodd" d="M348.4,855.6H510.1v-.5H348.4v.5Z" class="g1_6"/>
<path fill-rule="evenodd" d="M510.1,855.1h.6V820.9h-.6v34.2Z" class="g1_6"/>
<path fill-rule="evenodd" d="M510.1,855.6h.6v-.5h-.6v.5Z" class="g1_6"/>
<path fill-rule="evenodd" d="M510.7,855.6H799.1v-.5H510.7v.5Z" class="g1_6"/>
<path fill-rule="evenodd" d="M799.1,855.1h.5V820.9h-.5v34.2Z" class="g1_6"/>
<path fill-rule="evenodd" d="M799.1,855.6h.5v-.5h-.5v.5Z" class="g1_6"/>
<path fill-rule="evenodd" d="M799.1,855.6h.5v-.5h-.5v.5Z" class="g1_6"/>
<path fill-rule="evenodd" d="M38,39.6h.5V37.9H38v1.7Z" class="g0_6"/>
<path fill-rule="evenodd" d="M38,38.5h1.6v-.6H38v.6Z" class="g0_6"/>
<path fill-rule="evenodd" d="M38.5,39.6h.6V38.5h-.6v1.1Z" class="g2_6"/>
<path fill-rule="evenodd" d="M38.5,39h1.1v-.5H38.5V39Z" class="g2_6"/>
<path fill-rule="evenodd" d="M39.1,39.6h.5V39h-.5v.6Z" class="g0_6"/>
<path fill-rule="evenodd" d="M39.1,39.6h.5V39h-.5v.6Z" class="g0_6"/>
<path fill-rule="evenodd" d="M39.6,38.5h831v-.6H39.6v.6Z" class="g0_6"/>
<path fill-rule="evenodd" d="M39.6,39h831v-.5H39.6V39Z" class="g2_6"/>
<path fill-rule="evenodd" d="M39.6,39.6h831V39H39.6v.6Z" class="g0_6"/>
<path fill-rule="evenodd" d="M871.7,39.6h.6V37.9h-.6v1.7Z" class="g0_6"/>
<path fill-rule="evenodd" d="M870.6,38.5h1.7v-.6h-1.7v.6Z" class="g0_6"/>
<path fill-rule="evenodd" d="M871.2,39.6h.5V38.5h-.5v1.1Z" class="g2_6"/>
<path fill-rule="evenodd" d="M870.6,39h1.1v-.5h-1.1V39Z" class="g2_6"/>
<path fill-rule="evenodd" d="M870.6,39.6h.6V39h-.6v.6Z" class="g0_6"/>
<path fill-rule="evenodd" d="M870.6,39.6h.6V39h-.6v.6Z" class="g0_6"/>
<path fill-rule="evenodd" d="M38,1247.4h.5V39.6H38V1247.4Z" class="g0_6"/>
<path fill-rule="evenodd" d="M38.5,1247.4h.6V39.6h-.6V1247.4Z" class="g2_6"/>
<path fill-rule="evenodd" d="M39.1,1247.4h.5V39.6h-.5V1247.4Z" class="g0_6"/>
<path fill-rule="evenodd" d="M872.3,1247.4h1.6V39.6h-1.6V1247.4Z" class="g0_6"/>
<path fill-rule="evenodd" d="M871.7,1247.4h.6V39.6h-.6V1247.4Z" class="g0_6"/>
<path fill-rule="evenodd" d="M871.2,1247.4h.5V39.6h-.5V1247.4Z" class="g2_6"/>
<path fill-rule="evenodd" d="M870.6,1247.4h.6V39.6h-.6V1247.4Z" class="g0_6"/>
<path fill-rule="evenodd" d="M38,1249h.5v-1.6H38v1.6Z" class="g0_6"/>
<path fill-rule="evenodd" d="M38,1249h1.6v-.5H38v.5Z" class="g0_6"/>
<path fill-rule="evenodd" d="M38.5,1248.5h.6v-1.1h-.6v1.1Z" class="g2_6"/>
<path fill-rule="evenodd" d="M38.5,1248.5h1.1v-.6H38.5v.6Z" class="g2_6"/>
<path fill-rule="evenodd" d="M39.1,1247.9h.5v-.5h-.5v.5Z" class="g0_6"/>
<path fill-rule="evenodd" d="M39.1,1247.9h.5v-.5h-.5v.5Z" class="g0_6"/>
<path fill-rule="evenodd" d="M39.6,1250.7h831V1249H39.6v1.7Z" class="g0_6"/>
<path fill-rule="evenodd" d="M39.6,1249h831v-.5H39.6v.5Z" class="g0_6"/>
<path fill-rule="evenodd" d="M39.6,1248.5h831v-.6H39.6v.6Z" class="g2_6"/>
<path fill-rule="evenodd" d="M39.6,1247.9h831v-.5H39.6v.5Z" class="g0_6"/>
<path fill-rule="evenodd" d="M872.3,1250.7h1.6v-3.3h-1.6v3.3Z" class="g0_6"/>
<path fill-rule="evenodd" d="M870.6,1250.7h3.3V1249h-3.3v1.7Z" class="g0_6"/>
<path fill-rule="evenodd" d="M871.7,1249h.6v-1.6h-.6v1.6Z" class="g0_6"/>
<path fill-rule="evenodd" d="M870.6,1249h1.7v-.5h-1.7v.5Z" class="g0_6"/>
<path fill-rule="evenodd" d="M871.2,1248.5h.5v-1.1h-.5v1.1Z" class="g2_6"/>
<path fill-rule="evenodd" d="M870.6,1248.5h1.1v-.6h-1.1v.6Z" class="g2_6"/>
<path fill-rule="evenodd" d="M870.6,1247.9h.6v-.5h-.6v.5Z" class="g0_6"/>
<path fill-rule="evenodd" d="M870.6,1247.9h.6v-.5h-.6v.5Z" class="g0_6"/>
</svg>