<?xml version="1.0" encoding="UTF-8" standalone="no"?>
<!DOCTYPE svg PUBLIC "-//W3C//DTD SVG 1.1//EN"
"http://www.w3.org/Graphics/SVG/1.1/DTD/svg11.dtd">
<svg viewBox="0 0 1210 935" version="1.1" xmlns="http://www.w3.org/2000/svg" xmlns:xlink="http://www.w3.org/1999/xlink">
<defs>
<clipPath id="c0_24"><path d="M110,179.3V110h77v69.3Z"/></clipPath>
<clipPath id="c1_24"><path d="M632.7,794.7V110h467.1V794.7Z"/></clipPath>
<style type="text/css"><![CDATA[
.g0_24{
fill: none;
stroke: #000000;
stroke-width: 4.4;
stroke-linecap: butt;
stroke-linejoin: round;
stroke-dasharray: 5,5;
}
.g1_24{
}
.g2_24{
fill: #FFFFFF;
}
]]></style>
</defs>
<path d="M107.8,726.4H580" class="g0_24"/>
<image clip-path="url(#c0_24)" preserveAspectRatio="none" x="110" y="110" width="77" height="69" xlink:href="img/1.jpg"/>
<image clip-path="url(#c1_24)" preserveAspectRatio="none" x="633" y="110" width="467" height="685" xlink:href="img/2.png"/>
<path fill-rule="evenodd" d="M38,39.6h.5V38H38v1.6Z" class="g1_24"/>
<path fill-rule="evenodd" d="M38,38.5h1.6V38H38v.5Z" class="g1_24"/>
<path fill-rule="evenodd" d="M38.5,39.6h.6V38.5h-.6v1.1Z" class="g2_24"/>
<path fill-rule="evenodd" d="M38.5,39.1h1.1v-.6H38.5v.6Z" class="g2_24"/>
<path fill-rule="evenodd" d="M39.1,39.6h.5v-.5h-.5v.5Z" class="g1_24"/>
<path fill-rule="evenodd" d="M39.1,39.6h.5v-.5h-.5v.5Z" class="g1_24"/>
<path fill-rule="evenodd" d="M39.6,38.5H1171V38H39.6v.5Z" class="g1_24"/>
<path fill-rule="evenodd" d="M39.6,39.1H1171v-.6H39.6v.6Z" class="g2_24"/>
<path fill-rule="evenodd" d="M39.6,39.6H1171v-.5H39.6v.5Z" class="g1_24"/>
<path fill-rule="evenodd" d="M1172,39.6h.6V38h-.6v1.6Z" class="g1_24"/>
<path fill-rule="evenodd" d="M1171,38.5h1.6V38H1171v.5Z" class="g1_24"/>
<path fill-rule="evenodd" d="M1171.5,39.6h.6V38.5h-.6v1.1Z" class="g2_24"/>
<path fill-rule="evenodd" d="M1171,39.1h1.1v-.6H1171v.6Z" class="g2_24"/>
<path fill-rule="evenodd" d="M1171,39.6h.5v-.5h-.5v.5Z" class="g1_24"/>
<path fill-rule="evenodd" d="M1171,39.6h.5v-.5h-.5v.5Z" class="g1_24"/>
<path fill-rule="evenodd" d="M38,896h.5V39.6H38V896Z" class="g1_24"/>
<path fill-rule="evenodd" d="M38.5,896h.6V39.6h-.6V896Z" class="g2_24"/>
<path fill-rule="evenodd" d="M39.1,896h.5V39.6h-.5V896Z" class="g1_24"/>
<path fill-rule="evenodd" d="M1172.6,896h1.7V39.6h-1.7V896Z" class="g1_24"/>
<path fill-rule="evenodd" d="M1172,896h.6V39.6h-.6V896Z" class="g1_24"/>
<path fill-rule="evenodd" d="M1171.5,896h.6V39.6h-.6V896Z" class="g2_24"/>
<path fill-rule="evenodd" d="M1171,896h.5V39.6h-.5V896Z" class="g1_24"/>
<path fill-rule="evenodd" d="M38,897.6h.5V896H38v1.6Z" class="g1_24"/>
<path fill-rule="evenodd" d="M38,897.6h1.6v-.5H38v.5Z" class="g1_24"/>
<path fill-rule="evenodd" d="M38.5,897.1h.6v-1.2h-.6v1.2Z" class="g2_24"/>
<path fill-rule="evenodd" d="M38.5,897.1h1.1v-.6H38.5v.6Z" class="g2_24"/>
<path fill-rule="evenodd" d="M39.1,896.5h.5V896h-.5v.5Z" class="g1_24"/>
<path fill-rule="evenodd" d="M39.1,896.5h.5V896h-.5v.5Z" class="g1_24"/>
<path fill-rule="evenodd" d="M39.6,899.3H1171v-1.7H39.6v1.7Z" class="g1_24"/>
<path fill-rule="evenodd" d="M39.6,897.6H1171v-.5H39.6v.5Z" class="g1_24"/>
<path fill-rule="evenodd" d="M39.6,897.1H1171v-.6H39.6v.6Z" class="g2_24"/>
<path fill-rule="evenodd" d="M39.6,896.5H1171V896H39.6v.5Z" class="g1_24"/>
<path fill-rule="evenodd" d="M1172.6,899.3h1.7V896h-1.7v3.3Z" class="g1_24"/>
<path fill-rule="evenodd" d="M1171,899.3h3.2v-1.7H1171v1.7Z" class="g1_24"/>
<path fill-rule="evenodd" d="M1172,897.6h.6V896h-.6v1.6Z" class="g1_24"/>
<path fill-rule="evenodd" d="M1171,897.6h1.6v-.5H1171v.5Z" class="g1_24"/>
<path fill-rule="evenodd" d="M1171.5,897.1h.6v-1.2h-.6v1.2Z" class="g2_24"/>
<path fill-rule="evenodd" d="M1171,897.1h1.1v-.6H1171v.6Z" class="g2_24"/>
<path fill-rule="evenodd" d="M1171,896.5h.5V896h-.5v.5Z" class="g1_24"/>
<path fill-rule="evenodd" d="M1171,896.5h.5V896h-.5v.5Z" class="g1_24"/>
</svg>